#tb 0: 1/25
#media_type 0: video
#codec_id 0: rawvideo
#dimensions 0: 416x240
#sar 0: 0/1
0,          0,          0,        1,   299520, 0x004cc70a
0,          1,          1,        1,   299520, 0x8dfd2b7e
0,          2,          2,        1,   299520, 0x60c2b173
0,          3,          3,        1,   299520, 0x800726e7
0,          4,          4,        1,   299520, 0x641fd0db
0,          5,          5,        1,   299520, 0x5fc4cbdd
0,          6,          6,        1,   299520, 0x0e0b4ade
0,          7,          7,        1,   299520, 0xadc0cc89
0,          8,          8,        1,   299520, 0x777d44aa
0,          9,          9,        1,   299520, 0x716d6666
0,         10,         10,        1,   299520, 0x69f9537d
0,         11,         11,        1,   299520, 0xd2ef7b7a
0,         12,         12,        1,   299520, 0xe1142fd2
0,         13,         13,        1,   299520, 0xdd808abc
0,         14,         14,        1,   299520, 0x1f4e59c6
0,         15,         15,        1,   299520, 0x4ff295e7
0,         16,         16,        1,   299520, 0x107905ae
